<svg xmlns="http://www.w3.org/2000/svg" viewBox="0 0 15.5 15.3" width="50" height="50"><path fill="none" stroke="#000000" stroke-width="0.5" stroke-miterlimit="10" d="M14.26,15.06H1.16c-0.5,0-0.9-0.4-0.9-0.9v-13c0-0.5,0.4-0.9,0.9-0.9h13.2c0.5,0,0.9,0.4,0.9,0.9v13C15.26,14.16,15.26,15.06,14.26,15.06z" /><line fill="none" stroke="#000000" stroke-miterlimit="10" x1="1.06" y1="10.66" x2="14.36" y2="10.66" /><line fill="none" stroke="#000000" stroke-width="0.6" stroke-miterlimit="10" x1="12.56" y1="4.16" x2="12.56" y2="7.86" /><line fill="none" stroke="#000000" stroke-width="0.6" stroke-miterlimit="10" x1="9.76" y1="4.16" x2="9.76" y2="7.86" /><line fill="none" stroke="#000000" stroke-width="0.6" stroke-miterlimit="10" x1="6.86" y1="4.16" x2="6.86" y2="7.86" /><line fill="none" stroke="#000000" stroke-miterlimit="10" x1="2.16" y1="7.86" x2="14.36" y2="7.86" /><path fill="none" stroke="#000000" stroke-width="0.6" stroke-miterlimit="10" d="M14.36,4.16H5.16c0,0-0.41653,0-0.94,0.2c-1.8,0.8-1.76,3-1.76,3" /><line fill="none" stroke="#000000" stroke-miterlimit="10" x1="2.86" y1="9.26" x2="14.36" y2="9.26" /><path d="M2.86,9.76c-0.1,0-0.2-0.04524-0.2-0.04524c-0.5-0.2-0.5-0.95476-0.5-0.95476h0.7V9.76z" /></svg>